<mxfile host="app.diagrams.net" agent="Mozilla/5.0 (Windows NT 10.0; Win64; x64) AppleWebKit/537.36 (KHTML, like Gecko) Chrome/131.0.0.0 Safari/537.36" version="25.0.3">
  <diagram name="Page-1" id="OBoTVpchcBNxLqKWHAVs">
    <mxGraphModel dx="1434" dy="746" grid="1" gridSize="10" guides="1" tooltips="1" connect="1" arrows="1" fold="1" page="1" pageScale="1" pageWidth="850" pageHeight="1100" math="0" shadow="0">
      <root>
        <mxCell id="0" />
        <mxCell id="1" parent="0" />
        <mxCell id="PUqtG0dN6eZpu1q711s8-8" style="edgeStyle=orthogonalEdgeStyle;rounded=0;orthogonalLoop=1;jettySize=auto;html=1;entryX=0.5;entryY=0;entryDx=0;entryDy=0;" edge="1" parent="1" source="PUqtG0dN6eZpu1q711s8-1" target="PUqtG0dN6eZpu1q711s8-4">
          <mxGeometry relative="1" as="geometry" />
        </mxCell>
        <mxCell id="PUqtG0dN6eZpu1q711s8-1" value="&lt;font style=&quot;font-size: 24px;&quot;&gt;start&lt;/font&gt;" style="strokeWidth=2;html=1;shape=mxgraph.flowchart.start_1;whiteSpace=wrap;" vertex="1" parent="1">
          <mxGeometry x="375" y="40" width="100" height="60" as="geometry" />
        </mxCell>
        <mxCell id="PUqtG0dN6eZpu1q711s8-2" value="&lt;font style=&quot;font-size: 24px;&quot;&gt;end&lt;/font&gt;" style="strokeWidth=2;html=1;shape=mxgraph.flowchart.start_1;whiteSpace=wrap;" vertex="1" parent="1">
          <mxGeometry x="375" y="870" width="100" height="60" as="geometry" />
        </mxCell>
        <mxCell id="PUqtG0dN6eZpu1q711s8-10" style="edgeStyle=orthogonalEdgeStyle;rounded=0;orthogonalLoop=1;jettySize=auto;html=1;entryX=0.5;entryY=0;entryDx=0;entryDy=0;" edge="1" parent="1" source="PUqtG0dN6eZpu1q711s8-3" target="PUqtG0dN6eZpu1q711s8-6">
          <mxGeometry relative="1" as="geometry" />
        </mxCell>
        <mxCell id="PUqtG0dN6eZpu1q711s8-16" style="edgeStyle=orthogonalEdgeStyle;rounded=0;orthogonalLoop=1;jettySize=auto;html=1;entryX=0.5;entryY=0;entryDx=0;entryDy=0;" edge="1" parent="1" source="PUqtG0dN6eZpu1q711s8-3" target="PUqtG0dN6eZpu1q711s8-14">
          <mxGeometry relative="1" as="geometry" />
        </mxCell>
        <mxCell id="PUqtG0dN6eZpu1q711s8-3" value="for (i &amp;lt; rows, i++)" style="rhombus;whiteSpace=wrap;html=1;" vertex="1" parent="1">
          <mxGeometry x="354" y="220" width="142" height="70" as="geometry" />
        </mxCell>
        <mxCell id="PUqtG0dN6eZpu1q711s8-9" style="edgeStyle=orthogonalEdgeStyle;rounded=0;orthogonalLoop=1;jettySize=auto;html=1;entryX=0.5;entryY=0;entryDx=0;entryDy=0;" edge="1" parent="1" source="PUqtG0dN6eZpu1q711s8-4" target="PUqtG0dN6eZpu1q711s8-3">
          <mxGeometry relative="1" as="geometry" />
        </mxCell>
        <mxCell id="PUqtG0dN6eZpu1q711s8-4" value="input rows, cols" style="shape=parallelogram;perimeter=parallelogramPerimeter;whiteSpace=wrap;html=1;fixedSize=1;" vertex="1" parent="1">
          <mxGeometry x="349" y="150" width="152" height="30" as="geometry" />
        </mxCell>
        <mxCell id="PUqtG0dN6eZpu1q711s8-11" style="edgeStyle=orthogonalEdgeStyle;rounded=0;orthogonalLoop=1;jettySize=auto;html=1;entryX=1;entryY=1;entryDx=0;entryDy=0;" edge="1" parent="1" source="PUqtG0dN6eZpu1q711s8-6" target="PUqtG0dN6eZpu1q711s8-3">
          <mxGeometry relative="1" as="geometry" />
        </mxCell>
        <mxCell id="PUqtG0dN6eZpu1q711s8-12" style="edgeStyle=orthogonalEdgeStyle;rounded=0;orthogonalLoop=1;jettySize=auto;html=1;entryX=0.5;entryY=0;entryDx=0;entryDy=0;" edge="1" parent="1" source="PUqtG0dN6eZpu1q711s8-6" target="PUqtG0dN6eZpu1q711s8-7">
          <mxGeometry relative="1" as="geometry" />
        </mxCell>
        <mxCell id="PUqtG0dN6eZpu1q711s8-6" value="for (j &amp;lt; cols, j++)" style="rhombus;whiteSpace=wrap;html=1;" vertex="1" parent="1">
          <mxGeometry x="501" y="320" width="142" height="70" as="geometry" />
        </mxCell>
        <mxCell id="PUqtG0dN6eZpu1q711s8-13" style="edgeStyle=orthogonalEdgeStyle;rounded=0;orthogonalLoop=1;jettySize=auto;html=1;entryX=1;entryY=1;entryDx=0;entryDy=0;" edge="1" parent="1" source="PUqtG0dN6eZpu1q711s8-7" target="PUqtG0dN6eZpu1q711s8-6">
          <mxGeometry relative="1" as="geometry" />
        </mxCell>
        <mxCell id="PUqtG0dN6eZpu1q711s8-7" value="input array1[i][j]" style="shape=parallelogram;perimeter=parallelogramPerimeter;whiteSpace=wrap;html=1;fixedSize=1;" vertex="1" parent="1">
          <mxGeometry x="650" y="410" width="152" height="30" as="geometry" />
        </mxCell>
        <mxCell id="PUqtG0dN6eZpu1q711s8-17" style="edgeStyle=orthogonalEdgeStyle;rounded=0;orthogonalLoop=1;jettySize=auto;html=1;entryX=0.5;entryY=0;entryDx=0;entryDy=0;" edge="1" parent="1" source="PUqtG0dN6eZpu1q711s8-14" target="PUqtG0dN6eZpu1q711s8-15">
          <mxGeometry relative="1" as="geometry" />
        </mxCell>
        <mxCell id="PUqtG0dN6eZpu1q711s8-23" style="edgeStyle=orthogonalEdgeStyle;rounded=0;orthogonalLoop=1;jettySize=auto;html=1;" edge="1" parent="1" source="PUqtG0dN6eZpu1q711s8-14" target="PUqtG0dN6eZpu1q711s8-22">
          <mxGeometry relative="1" as="geometry" />
        </mxCell>
        <mxCell id="PUqtG0dN6eZpu1q711s8-14" value="for (i &amp;lt; rows, i++)" style="rhombus;whiteSpace=wrap;html=1;" vertex="1" parent="1">
          <mxGeometry x="354" y="400" width="142" height="70" as="geometry" />
        </mxCell>
        <mxCell id="PUqtG0dN6eZpu1q711s8-18" style="edgeStyle=orthogonalEdgeStyle;rounded=0;orthogonalLoop=1;jettySize=auto;html=1;entryX=1;entryY=1;entryDx=0;entryDy=0;" edge="1" parent="1" source="PUqtG0dN6eZpu1q711s8-15" target="PUqtG0dN6eZpu1q711s8-14">
          <mxGeometry relative="1" as="geometry" />
        </mxCell>
        <mxCell id="PUqtG0dN6eZpu1q711s8-20" style="edgeStyle=orthogonalEdgeStyle;rounded=0;orthogonalLoop=1;jettySize=auto;html=1;entryX=0.5;entryY=0;entryDx=0;entryDy=0;" edge="1" parent="1" source="PUqtG0dN6eZpu1q711s8-15" target="PUqtG0dN6eZpu1q711s8-19">
          <mxGeometry relative="1" as="geometry" />
        </mxCell>
        <mxCell id="PUqtG0dN6eZpu1q711s8-15" value="for (j &amp;lt; cols, j++)" style="rhombus;whiteSpace=wrap;html=1;" vertex="1" parent="1">
          <mxGeometry x="501" y="500" width="142" height="70" as="geometry" />
        </mxCell>
        <mxCell id="PUqtG0dN6eZpu1q711s8-21" style="edgeStyle=orthogonalEdgeStyle;rounded=0;orthogonalLoop=1;jettySize=auto;html=1;entryX=1;entryY=1;entryDx=0;entryDy=0;" edge="1" parent="1" source="PUqtG0dN6eZpu1q711s8-19" target="PUqtG0dN6eZpu1q711s8-15">
          <mxGeometry relative="1" as="geometry" />
        </mxCell>
        <mxCell id="PUqtG0dN6eZpu1q711s8-19" value="array3[i][j] = array1[i][j] + array2[i][j]" style="rounded=1;whiteSpace=wrap;html=1;absoluteArcSize=1;arcSize=14;strokeWidth=2;" vertex="1" parent="1">
          <mxGeometry x="646" y="600" width="160" height="40" as="geometry" />
        </mxCell>
        <mxCell id="PUqtG0dN6eZpu1q711s8-27" style="edgeStyle=orthogonalEdgeStyle;rounded=0;orthogonalLoop=1;jettySize=auto;html=1;entryX=0.5;entryY=0;entryDx=0;entryDy=0;" edge="1" parent="1" source="PUqtG0dN6eZpu1q711s8-22" target="PUqtG0dN6eZpu1q711s8-24">
          <mxGeometry relative="1" as="geometry" />
        </mxCell>
        <mxCell id="PUqtG0dN6eZpu1q711s8-22" value="output&lt;br&gt;&quot;Array1 + Array2 = Array3" style="shape=parallelogram;perimeter=parallelogramPerimeter;whiteSpace=wrap;html=1;fixedSize=1;" vertex="1" parent="1">
          <mxGeometry x="340" y="595" width="171" height="50" as="geometry" />
        </mxCell>
        <mxCell id="PUqtG0dN6eZpu1q711s8-28" style="edgeStyle=orthogonalEdgeStyle;rounded=0;orthogonalLoop=1;jettySize=auto;html=1;entryX=0.5;entryY=0;entryDx=0;entryDy=0;" edge="1" parent="1" source="PUqtG0dN6eZpu1q711s8-24" target="PUqtG0dN6eZpu1q711s8-25">
          <mxGeometry relative="1" as="geometry" />
        </mxCell>
        <mxCell id="PUqtG0dN6eZpu1q711s8-24" value="for (i &amp;lt; rows, i++)" style="rhombus;whiteSpace=wrap;html=1;" vertex="1" parent="1">
          <mxGeometry x="354" y="690" width="142" height="70" as="geometry" />
        </mxCell>
        <mxCell id="PUqtG0dN6eZpu1q711s8-29" style="edgeStyle=orthogonalEdgeStyle;rounded=0;orthogonalLoop=1;jettySize=auto;html=1;entryX=0.5;entryY=0;entryDx=0;entryDy=0;" edge="1" parent="1" source="PUqtG0dN6eZpu1q711s8-25" target="PUqtG0dN6eZpu1q711s8-26">
          <mxGeometry relative="1" as="geometry" />
        </mxCell>
        <mxCell id="PUqtG0dN6eZpu1q711s8-31" style="edgeStyle=orthogonalEdgeStyle;rounded=0;orthogonalLoop=1;jettySize=auto;html=1;entryX=1;entryY=1;entryDx=0;entryDy=0;" edge="1" parent="1" source="PUqtG0dN6eZpu1q711s8-25" target="PUqtG0dN6eZpu1q711s8-24">
          <mxGeometry relative="1" as="geometry" />
        </mxCell>
        <mxCell id="PUqtG0dN6eZpu1q711s8-25" value="for (j &amp;lt; cols, j++)" style="rhombus;whiteSpace=wrap;html=1;" vertex="1" parent="1">
          <mxGeometry x="501" y="790" width="142" height="70" as="geometry" />
        </mxCell>
        <mxCell id="PUqtG0dN6eZpu1q711s8-30" style="edgeStyle=orthogonalEdgeStyle;rounded=0;orthogonalLoop=1;jettySize=auto;html=1;entryX=1;entryY=1;entryDx=0;entryDy=0;" edge="1" parent="1" source="PUqtG0dN6eZpu1q711s8-26" target="PUqtG0dN6eZpu1q711s8-25">
          <mxGeometry relative="1" as="geometry" />
        </mxCell>
        <mxCell id="PUqtG0dN6eZpu1q711s8-26" value="output array3[i][j]" style="shape=parallelogram;perimeter=parallelogramPerimeter;whiteSpace=wrap;html=1;fixedSize=1;" vertex="1" parent="1">
          <mxGeometry x="650" y="870" width="140" height="40" as="geometry" />
        </mxCell>
        <mxCell id="PUqtG0dN6eZpu1q711s8-32" style="edgeStyle=orthogonalEdgeStyle;rounded=0;orthogonalLoop=1;jettySize=auto;html=1;entryX=0.5;entryY=0;entryDx=0;entryDy=0;entryPerimeter=0;" edge="1" parent="1" source="PUqtG0dN6eZpu1q711s8-24" target="PUqtG0dN6eZpu1q711s8-2">
          <mxGeometry relative="1" as="geometry" />
        </mxCell>
      </root>
    </mxGraphModel>
  </diagram>
</mxfile>
